<svg xmlns="http://www.w3.org/2000/svg" xmlns:xlink="http://www.w3.org/1999/xlink" xml:space="preserve" version="1.0" style="shape-rendering:geometricPrecision;text-rendering:geometricPrecision;image-rendering:optimizeQuality;" viewBox="0 0 10000 12500" x="0px" y="0px" fill-rule="evenodd" clip-rule="evenodd"><defs><style type="text/css">
   
    .fil0 {fill:black;fill-rule:nonzero}
   
  </style></defs><g><path class="fil0" d="M1745 3703l1903 0 0 -1029 -1190 0c-392,0 -713,321 -713,713l0 316z"/><polygon class="fil0" points="1745,4992 3648,4992 3648,3948 1745,3948 "/><polygon class="fil0" points="1745,6282 3648,6282 3648,5238 1745,5238 "/><path class="fil0" d="M3648 6528l-1903 0 0 85c0,392 321,713 713,713l1190 0 0 -798z"/><path class="fil0" d="M8255 6528l-2288 0 0 798 1575 0c392,0 713,-321 713,-713l0 -85z"/><polygon class="fil0" points="8255,5261 5967,5261 5967,6282 8255,6282 "/><polygon class="fil0" points="5967,5015 8255,5015 8255,3971 5967,3971 "/><path class="fil0" d="M5721 3848c0,-67 55,-122 123,-122l2411 0 0 -339c0,-392 -321,-713 -713,-713l-3648 0 0 4652 1827 0c0,-1161 0,-2318 0,-3478z"/><path class="fil0" d="M7862 2261l-5724 0c-470,0 -854,384 -854,855l0 3768c0,471 384,855 854,855l5724 0c470,0 854,-384 854,-855l0 -3768c0,-471 -384,-855 -854,-855zm-5404 167c1695,0 3389,0 5084,0 528,0 959,431 959,959 0,1075 0,2151 0,3226 0,528 -431,959 -959,959 -1695,0 -3389,0 -5084,0 -528,0 -959,-431 -959,-959 0,-1075 0,-2151 0,-3226 0,-528 431,-959 959,-959z"/></g><text x="0" y="10015" fill="#000000" font-size="5px" font-weight="bold" font-family="'Helvetica Neue', Helvetica, Arial-Unicode, Arial, Sans-serif">Created by Ragal Kartidev</text><text x="0" y="10020" fill="#000000" font-size="5px" font-weight="bold" font-family="'Helvetica Neue', Helvetica, Arial-Unicode, Arial, Sans-serif">from the Noun Project</text></svg>